/* XPM */
static char *_22e7a2a88b34014e33eee33fbea2eb9VBVO3KkONYzMj5Zz[] = {
/* columns rows colors chars-per-pixel */
"100 100 84 1 ",
"  c #020801",
". c #05060A",
"X c #090B0E",
"o c #0C120D",
"O c #0B0E12",
"+ c #0E1116",
"@ c #0F1319",
"# c #101316",
"$ c #111816",
"% c #12151B",
"& c #14191E",
"* c #161B22",
"= c #191E25",
"- c #1B1F28",
"; c #1A2027",
": c #1D242B",
"> c #1F282E",
", c #1F2830",
"< c #20252B",
"1 c #20272F",
"2 c #20282F",
"3 c #24292F",
"4 c #202730",
"5 c #222931",
"6 c #222B33",
"7 c #232B33",
"8 c #232C33",
"9 c #252C33",
"0 c #232C34",
"q c #242C34",
"w c #242E36",
"e c #272E37",
"r c #282F37",
"t c #262F38",
"y c #292F38",
"u c #263037",
"i c #2A3137",
"p c #273139",
"a c #2A313A",
"s c #29323A",
"d c #2B323B",
"f c #2C343B",
"g c #2A343C",
"h c #2B343C",
"j c #2C343C",
"k c #2C343D",
"l c #30363E",
"z c #31383F",
"x c #2C3740",
"c c #2F3740",
"v c #2E3841",
"b c #2E3943",
"n c #303740",
"m c #303841",
"M c #303942",
"N c #323A42",
"B c #333D45",
"V c #383F47",
"C c #333E49",
"Z c #353F49",
"A c #394047",
"S c #364049",
"D c #35414C",
"F c #38424B",
"G c #3A444D",
"H c #3B4651",
"J c #3E4953",
"K c #40474E",
"L c #404750",
"P c #424B55",
"I c #444E59",
"U c #46515B",
"Y c #49535E",
"T c #4B5661",
"R c #4E5964",
"E c #515C66",
"W c #535E69",
"Q c #56626D",
"! c #5C636C",
"~ c #596570",
"^ c #60656A",
"/ c #63686E",
"( c #656C72",
") c #8E9296",
/* pixels */
"aakaaaaa&mmaaaaaaaaaaaaa92mmaaaaaagkkraaa=BZkkkkkk5FSvvckkkkkkkkkk:mBvkgkkgkggaeeerOmmaaaieeaaaeeeee",
":::::::=%a5:111:;:15::::%:a55222:2555521:+m555555=:ke5555:15555221@me55522;2552;;:=.e51::::=::::;;;*",
";::::::*&a121:==;;12::=*%5e552:;:::551:;;+c555:::*9g055:::::555:;;+k8552;;;;12::;;*Xe2:::===*:::;**%",
"=;=;;;:&*a1:::=;:::::;**%ee52:2;:255:::==Oc5555:5&age555;:5552::;=+c855::;:22::;;=*.e5:::;=::::;=**%",
"==;::::&*a4::::::1:=:***%ea5255:155:::===Oc5:5555&ake5081555:::;==+Ze5555::55;:===*.m2::::;:::*;***%",
"===::::&*e,:::::::1*=***%et555555555=====Ov05000e*fgeeee85558;;===+Ze55552:55:===**Xn>>:::::::=****%",
"***;:::%%:::;===:::%****%=555;;;::::*====O5005558*:eee::::5:5*====+9555:;;::::*===*X::::===;;;&&***%",
"@%%%%%%%+***&%%%%%%%%%%%%****%%%%%&&%%&&&+********====**&&&&*&%&&&+;==**&&&&&&%%%%%X***%%%%%%%%@%%%%",
";;;;;;;;+::::::;O1<:<<11:&:111<:1X2225533&5221122253211111X5322211111111211%::<<<;;X<:::::;=;:;:::::",
"555:111==ce551:;+ae55555::v:ape::+kkppppa=kvppgGBakepe2::aOBBpppeeeppp8855:*Bgee9::Xaa5521:*ke5:::::",
":::::::==e551:;;Op555:::*r:epee::Oapppe55%mppptve51eee2::*Okpppt52::pue5::&=gee55::Xe555::;%k51::;;*",
"=:::;::*=5555:;=Op555::5*kg;0e5:;+gppte5a+Jaaat055eeee::;=Ocappe::55eee2::*:ee002::.5552:::%k51::;:*",
"==;::::*=5::1::=Oa5:5550*kp0ete5;+gpeppea@Pgpgat5epp55::;=OGa0pp5:te0:5:::*;e5ee5::Xp5:551:%k5:1:::*",
"=;;::::**5::22:;Oa0,0eee*ka0ppp5;+kaaggga@Pggggapppp55:;;=OJaapppppte:5:::*:e5ee02:Xa82551:%k5:1:::*",
"===::::*%5221::;Oa000ee0*:pppp85;+cgggaaa%Bggggapppp0:;;;=Ogaappppppe;:;:;*&eee052:Xpe855::%a55::::*",
"*****&&&+::::;;*O:55508,**e0e5,:*Opppppt,%app5:::::::*=;;*Oett:::::::=&;;;%+0555::=X:5>:::;%&::::::%",
"XXXXXXXX.XXXXXXX.XXXXXOOXXOOOOOOOXOOOOOOOX+OOOOOXXXOXXXOOO.OOOOOXXXOOOOOXXX.OOOXXXX.XXXXXXXXXXXXXXXX",
"are&5ee5&ZBkgae5@ZGcckckgeJZCBBmBBCCBmmmm=GISZBmvc2YISZBka#IPCBBmv:PPSBmvck=IJmmvaa+ZSaaaee:zmk99555",
"551;$;:=+gee85::Ovpppepp;5vxcccgepgvcggaa%Bvvcaga;5Zvvgge5+Bccgaga&Hccgapa:=Bggpp5:Xke05251%k551:::*",
"=:::;&$$;e5e8:::Ovppp55e=kcxcgp8epacgaa55#Hcccpee;kvvccpe5+vccceet&Hcggp5e;5vgaa51:Xke05:::%k551:=;*",
"=;;::::$;e 005:;Ovpeppeg=vxgggg5accgtep55+Hvgvcaa;mgcccge:+vvgggpp&Hcgccag;5gaape2:.k05551:%k521:::*",
"==:::::$o5:888:;Ovp5aagg=vcgccgagccpee555+Hvpvvva;cvpccct:+Bvaccgp&Jcecccg;5g0ppe5:Xk02055:%k5:1:::*",
"==;::::*#&*>85::Ovppaggg=mcccgggxccc55555+Jvvvvga;kvvvcgp:+Bvxvxap&Jvccvcg;<gvape5:Xgee851:%k522:::*",
"*==;:::*+8&;2::=Oepagggg=5ccg5555aep=:45:@avvvaap;:vvcapp;Occvxppp*ecvcggg=%gcgp52=X5ee01::%=55::::&",
"@@@@%%%%+*%%%%%%O********==**************%;*=*****&;=*****O=******&=***&&**%****%%%X%%%%%@%@%%##@+@#",
"aakaakkf%kmmmmmm&GFFFFFFGGGGGGGGS%LLLLKHLPPGHHGGGFfIUPLLLLPLLLLGGFrPLHGGGGG;GGFFVBB%BBBmmmlkkkkkaaaa",
"5555555;&Zgape52+Svcvgggagggagae:%HDSZCCvmSSZvvmv5rIHSCBvaGBCCBvvc%IBmmvcH5:YBvcge5OBgappe05000>:::=",
":25551:;=cppee2:OZggcgpeeeaaaap8:%DSZCvaaaaCCmcaa-mIDDDvaapvCCBvee%Pvvmkau:1Gmvga55XBgapp5:::0852;=&",
";::::15=;ppppe2:OCggggpecgagcee51%DCCBBagBmCCBaee:GIDDCvpcCBCBcaee%Ivvvcac:rmvvca51XZgape1:85855;==&",
";;:5515=;e5tpe5:OCgpcvpevvgekee5:%DCcCCvgCCvavae5;GIDCDDgvDCvagtee&Ivavvvv:rmavcge1XZgtppe:ee8:1;=*&",
";::5555==e5ete5:OZgcccccvvvea855:%DCBCCCCCCBtaee5=GIDDSSSDCCBaaeee%Ivgvvvv:rBgvcge2XBgappeee08::===&",
"==;5555=%eeee55:Ovggggggccg55555:#DCCBmmmCmv55555=kDDSCBBBCBm5ee55%Hvvvvvc;=mvvge5:Xcaape00085;====*",
"===*=***+1551::;+4ee1:::1:::*:::=Oagg5555555:=11:=ecvc5555554==4::%:ppppte==aat5::=O5e0:;=====*%***%",
"OXOXOOOO.O+OOOOOO+OOOOOO+#@++++++O++++@++O%#+++++#%#++++++X%%+++++O++#++++OO%+++OOO+++OOOOOOOOXXXXXX",
"ckgeeee1*GGgggkkvvvvvvvv5mRTIDSSSGSDDDTSZ=YQYHGGGHUHHHGGGB+YTGDSSGrEUDSSSSB=TYCCBkavmvvckkg:BBgeee95",
"5505555;*Bpppaae5egckgaa=kYDSSBvggmCSDBvc%IHGDSZZacDDDCBB5+HDSSmmk;TSCBcmm5=PBvvviaeegggate*Buee225=",
":555:55=;Bpppp55eeggga55=GJSDCkaacvCCmcua%QDDDSaakvSDDmgae+HSSZkkm*YSCCcak:iPvvvk9eeeggpe::%Bee85;:=",
";::>515=;Bpepa5egggeep55=LJDBBBavBBBckcee%QDDDDCaSDDCvcce5+HSmCCvm*YCmCCvB:aPvggveacga555::%Be88525=",
":::5555=;Bppaaaagga2p555=HJCCCBmBBCkageee%QDSSDSCDDDgCape5+HDmCCCv*YCkCCCB:iPBvvvcccgp:e:::%Be:0555=",
":::5555==gpppaaaagg:1111=FDCCBBBCBBBeeeee%RDDBCCSCBDBteee5+HZCCCvv*YCCCCBB:iDBvvvcccga:::::%mee0555=",
";;;::;;*&tpp1:::550=;:::=kCBBe558app=4555%SZCceeeagge-5ee:OmCCvcck=rCCmBBm;5vvve5::055*=;;;%=005:::&",
"++++@@+#O%%#####%%%%%%%%&**&&%%%%%%%&&%%&%:*&&&%%**&**&%%*X*&&%%%&#*&&%%%%%%&%%%%@#@%%#@###+##++++++",
"mmBmmmmm=JJGGGGF*UUPPPPPJBRTYYUIP%EERTTYYRRYYYYPPPBERRTTYR&EYYYYUIzWWTYYUII:RTIIPHG%UIJHHGFZZBBmmkkk",
"550eeee:=Dccgae9+GvvmmBB5mYDDSZBa%IHHGGHDmSDDSZCB:kTHHHDmv%IHSSZZZ:YDDDSCCa:ISCCBatODvvccga5epp5521=",
":555555;;vgggp55OGvvmcag;BHDDSgae%PGDDDccvkSSSBaa:mJHHSvkt+HDDSvkk=YDDDBkk:5HCCCceeXDvccg5551pe52:;&",
";::125e=;cggga54OGvvvmaC;GSDSDva5%IDDDDccDSmBBkpe:BGGSDmge+HDSCCvm*TDSDSvC:rCCBmce5XDvccgt2ppe85:;=*",
";;1505e=;c0aaat1OGvaBBmC:GDcCCBa5#WDvDSCvDSvaBtte;BDvSSCg5+GCvSSCv=TSvSSCZ:rCavvva5XTvacga5ppe:5;;=*",
":::50ee=;aaaaat4OHvvvmmB:JSBCBva5#YSDDSDSDCCattee:mDCSCCc5#GCCCCmm*YSCCCCC:5CmBvca5XUvccgaapte:;===*",
"=;:5850=%aapp55:Ovvvvvvv;5CCmcaa:OBCCvcgkCvB55eee::SZCvck1OCCCBmmv&BCCmCBB:;Bmmcpe:Xvvca055ee0;====*",
"&****&**%:::;===O::::::;=:e55:::;O:45::::::;;=;::;:52e5::;+551::1:&:114:::;=e5::;;=O:;;==*****&%&&&%",
"::::<::<O5555559%laaaaaai:aaaairi+mmnlllk;Bkklllkk:mlllkaa&mlkkaaf<zkkfaaaa=laaarr99re95321;11<:::<1",
"aet0eee:=Jmcgge8%JDBBBCBgkTJDDCka%IJDDDDG:RJDDDDSvkQIHHDca%UJDDSZZtWJDSSSZm;RRDBmBZGvvvvcae;Gkpe5555",
"5555851:=Bggaa95OGmBBcka:kGSSBmap%JDDDBmm*TDDDmmm,mIHHCCga+HDDDvvc=TDSSvvve;ISZBvaaigvcga55&Buee2::*",
":55515e=:ggggt55OGvmvgam;FSSCCca5#HDDCmcC&TDDDBkS5FHHGDvge+HSSCvkB*YSSSmgC4rHSCvveacgcgae21%Ba005:2=",
";::555e=:gtggae1ODvgmmkm;FvvBBva5#HDmDDvC%TDmDDmS:GDCCCBk5+HSvCCBB&YSmDDmC:lYScBvaavvg5e51:%me50055=",
";::550e=;g0aaae5ODvcmBmv;BBgBvvg5#HDCDDCm%YDBDDDS:FDvDCBk5+HSBCCmv&YCvCCCB:lYCBmvvvvvg5e:::%mp5e085=",
";;:5500=&aaaae01+Svvvvvv;9Bmvvga5%HSSCBvv&ISSDSDS::DDCBvg5+SDCBvvv*ICCCCBm:9SCBvvccvcg:::::%mpe0855=",
"====;==*%eppe55;+5cgggga=:vvcapt:+vBmvcct*evvvvvc::mBmgaa:Ocmvcaap*evvvvvc;:cvv552152:==:;;%=555:::&",
"XXOXOOOOX+OOOOOOX+OOOOOO+O+++OOOOX+O++OO+O%+++++O+%++++OOOO@OOOOOOO%OOOOOO+O+O+OOOOOOOOOOXXOOXXXXXXX",
"kkagggkr*PPBZSGGGGGGSSSSkmRYJJHSB*RRJJJJH9QWJJJJTZl~WJJJJJJJJJJJHG1EWPJHHGH2WYJHGSS%PISBmmvrGHBkkgaa",
"555008e:*Dggcvvaeammvccc;mGSSBBgt%HDDSCZB*YDDDBZZ5kIDDDSBkkmSZCCmm*YDDSmmme:JSZmmaeODvckaae=Bape555=",
":555559=:Sggggeeaavmvcee=BSZCBgae%GDSZckZ&YDSSvkv4LIDDSmaacvCCmvya*YSCCvag59DCCBaeeOSvgge5e*Bape5::=",
";::1255=:vgaggtavvvaaa55=Bvvmmva5%DSmCCvC%YCBSCvB:GIDCDSamCCCcacee*YZmCBvB:eBBvvvp5XSgpgaee%Bpee555=",
"::15555=:Cgaggggvvk5g555=mmavvva5#DCmCCCv%ICkDSBv;GPDCDCBCCCcaveee&UCgCCCB:9Bavvva5OZgegap5%Bp5ee85=",
":::5555=:vgggggcvvv55555=avvvvgp5#DCCCBvc%UCCCCvc;FGCBvCCCCBmeeeee%PBCCCBB;2mvvvge5XCgppp05%Bpeee85=",
";;;::::*&aaa5555ppt;:552*:ccvaue;OBBBvgga*aBBBccg;aBBmpeeegaa=5055%9BBvmmv:*vvcgpe:Xeppe052%:pe0055*",
"%%%%%%%%O*&&%%%%%%*&%%%&*&*******X===***=%;=*****===**********%*&*@=**&&***%=&&&%&&X%&%%%%%#&%%%####",
"nmmmmmBB=JHGGGGF&LPPPPPUPzYYUUIIP&YYYUUUUaIYUYUUUYTYIIIUUI#TRYYUIYYYYIUUUIP:YUPPLHF&LLGGFFFzBFBBmmmm",
"5e00eee:=Gcckae5+GvvvmmD5mYDDSBaa=GSSZZCB=HHDSSCCgZDSBmvve+JGDDCCBcmBBSZBma:ICBmvee+Svcgaaa=Baee855:",
":555555;:vckgp55ODvvvgaa;BGDSCvae%DSZZvkk*PDSCCgggaCCBkae:#JSCCBgagaBBBvape2DCCvge5XSccge55*Bpee5::=",
";>:::20=:cgggp51OSvvvcav;FCCCBva5%DCCBCkB&QDCCvvavBmBvpe95#WSSCBgaBvmmmpee:aBBvvge5XScgga9e&Bpe05:5=",
";::5555=;geaap8:OSvpcvcv;Smgvvva4%DCvCCvm&WDvCBBavvBpvee54+RDcCCvavvvevee5:amaccgp5XZcpgaee&mp50555*",
";::5555=;gpppp5:OZcxcccc;Zmvvvva4%SCBBBmv%TCCvvvvvvvge055:+YCCCvBvvvvee055;9mcccgp5XZcggpe5&mp00552*",
";;;2555*%pppe55:Oagggggc=:vvvgpp:#CBvvvvv%SBvvpppgvvp:555:OBBvgpppcgg::555;&vvgaee5Xcgap055%9ee55:1*",
"&&&&*&&&@:;;====O;;;;;;;*;55,:;;-@4::::::%e::;-==;;;=*===*O5::;---;-=**-==*&1::;===O:;;==**%&=***&&%",
"11111111#9999rrr%aaaaaaaiimmnlkklmkkklkkk<mkkkkkaa1lmllkakmlkkkaay<mkaakaaa=aaaaaaaaarrrr95<59555315",
"ee000ee:*Gvggt55#SmcccccaaTICBvvcmBHvvvvc%YGCBBBBafPJCBmvkDCCCvvcg%UDmvvvcg:IHvcggpgggaptee*Bgpe555:",
">55552:;*caape51OCcccape:kDBvvaaaecvvvkea%PBBmgaa:AJCBmgaaecmvvgte%Pvvvapp:<Hvcgae95eappe::%mee8:::*",
";:::::5=;apppe2:Omaggaeg;GSvvggeaggggat55@Pvvvktv:FHBvcgeavcvvap55%Pvvcgeg:rHcgap55pepp05::%me05>::*",
";;::5:2==p5ete5:Ovpeggpg=FCcgggepggeete55+Jvgvvgv;BHvcvvegvvaeae55%Jcacvgg;9Ggpga88ppe:5:;;%z025511*",
";;;:55>*=t5ee05:Ovpeggaa*Bvggappaaaa50552+Jvgvvvc;BDvvvvvvvcc5e555%Ggpccga;5Sggapppppe::;;;%l0>555:*",
"===:22>*%ee005::Okpppppp*eaapeeeeppp:::::+Sgggccc;evvvggggggg:521:%Bggggat;:gaapeeee00=;;;=%a5555::*",
"******&*#::::::=O:555554*:555::;;;;-**;;=%4eeetee=:ett:::::::*=:;=%:0e5555=*055::-====*%***%*::;==;%",
"OOOOOOOOXOOOOOOOOOOOOOO++O+++++OOX++++++++#+++++++O+++++OOX+++OOOOO++OOOOOO.++OOOOOXOOOOOOOOOOOOOXOO",
"kap5559:&FSpaaaueape5555:eGmggae5+ZHPPJJkgvvvvvga5aPGvckggOJJmvcggggggggaa5:JSvcgp5OBmappee9eeee511:",
"55522:;;&meeee55::e82:::&egapee5:+SmScgpe55gggaet=aBcgppe:OBccggpe55aaapee*:mggpe5:Xvpee011;;555:::&",
";:::::1**v0855::2:551:;=%apppe51:+vvgap55e0aape11=agggp55:Ovggap528eppp0::*1gapp2::Xae005;;::521:=*&",
"=;;::::*=c5:55::552;::==%i50ee8:;+gcepp55ppp555::*ipeppe5:Ovaeape2ppe552::*1eee05:;Xa0555:;55:;;==*&",
"==;::::*=k555555552;;==*%e5:0e0:=+apettetpee:5:::*rp5ppe5:Okptppeeeee:5:;;*:e:555:;Xp55551152:=:***%",
"===::::**5555:::1:2=====%;5555::=Ope00000eee;:;::*;ppee5:;Oateee00e05;;===&%0555:;=X555:::::::=****%",
"*******%%51:=======&%***%*555::;%O555;;;;:::*&=;=%&e00:::*X405;;;;;;;*%===%O52::;;*X:::==**=*=*@***#",
"XXXXXXXXXOOOXXXXXXXXXXXXXXOOOOOOO.OOXXXXXOOOXXXXXOOOOOOXXX.OOXXXXXXXXXXXXXX.OOXXXXX.OXXXXXXXXXXXXXXX",
"ckkteee5=Bmaaate@mmaaaaaaaFBkkkii+BBkkgaa=SSckkkka1GSvvkaeOBBckgga:BZkgaaaa=ZBgaae5Okmaaeee5mm(teeee",
":::::::==a55::;;Oa555255*ra0055:;Oe88555:@v088555=:gee0e:;Oe000552%m055555==a5552:;Xe>:::::%am)A:::*",
";:::;::**52::;;=Oe225:;:&re55>:;=O8555:;:+k555:::*2e085::=Xe555:;:@k555:;;*:e552;;=.e5::;;;%/)))^==*",
"===;;;:&*:::::;=Oe::::::%e:>:::;*O52::2::Ok5:55::&55555::*Xe5:55:1+k,:2:::&:52:::;*.5::::;;@iA)K:;:*",
"=;;::;:&*:;:::;*Oe:;::::%e,;:::;*O5::11::Ok2;552:*52:52:;*X5::241:+k:;:52:%;5;:::;*.5:;:::;@i:!::::*",
"===;;::%%::::;=*Oe:::::;%::::::;*O5::::::Oa::1:::&::::::;*X5::::::+a::::::%*1::;:;*.5::::;;@i::::::*",
"***====%O:::;==&X;:::;;=%%:::;;=%X::::;;=O=::::::%#:::;;;%.::::::;+=::::::%+:::;==%.=;;;;==@&::::::%",
"OOOOOOOOX++OOOOOX+++OOO++O++++OOOX++++OO+O++++++++O+++OOOO.+OO+OO+O+OOOO+++O++OOOOO.OOOOOOOOOOOOOOOO"
};
