/* XPM */
static char *_b457631a10446f99d94c67ed57d391dB2amsCdr7vdgBjmr[] = {
/* columns rows colors chars-per-pixel */
"100 100 65 1 ",
"  c #0F0C19",
". c #120E1D",
"X c #14121E",
"o c #17181F",
"O c #1A1B1E",
"+ c #130F20",
"@ c #161322",
"# c #191526",
"$ c #1B1A24",
"% c #1A1728",
"& c #1D1A2B",
"* c #1F1D30",
"= c #201D2E",
"- c #221E31",
"; c #1E2123",
": c #212325",
"> c #252B23",
", c #22222C",
"< c #25292A",
"1 c #242032",
"2 c #252034",
"3 c #252134",
"4 c #262334",
"5 c #272336",
"6 c #272437",
"7 c #282536",
"8 c #292932",
"9 c #262438",
"0 c #272438",
"q c #2A2739",
"w c #29253A",
"e c #28273A",
"r c #2B283B",
"t c #2C2A3B",
"y c #2B293C",
"u c #2C283C",
"i c #2E2B3C",
"p c #2F2C3F",
"a c #302C3F",
"s c #2E2C40",
"d c #2E2D41",
"f c #312D41",
"g c #322F44",
"h c #332F45",
"j c #333044",
"k c #343147",
"l c #353246",
"z c #353248",
"x c #363448",
"c c #37344A",
"v c #37354C",
"b c #38354B",
"n c #39364C",
"m c #3A384D",
"M c #3B384E",
"N c #3C3950",
"B c #413E4F",
"V c #555364",
"C c #595763",
"Z c #63616F",
"A c #686673",
"S c #73717F",
"D c #8E8C95",
"F c #92919A",
"G c #9E9DA7",
/* pixels */
"3znnuc&ww-%t&3&%1c1yud-&333uwd&rl@%&%&&%-7=&b1nnn61jnnuz=6r1@&1$;@3l#@&&&###@@#&#%j&#&&#-31111c7nnc0",
"3cnnuc&ww-&@#%&&%c6wdd13duuuwd&ul+#%%&&&3613z1nvz-3jcnul=wr-X%6;$@ul#@&--=-=&d&1&&c1##&#&&371wl3nnz-",
"3nnbuc1ww=&@#%%&-c3ryd133f6u6d&yfX%&3%##&r=-z=nfz=3nncrl3w3=#&6$:#uj#@-%####&&&&#&l1#-&w&3-w=3z=nfb-",
"3zccub=3w&&&&&%1&u-y00-33pwt3u&uy@$#-&#,1u1-l1lzz61zlzwl=3u&%&3#$@ub##=-&%==&&-#@%b=#-uw#&1u33l1jlz3",
"ffflfc=6w--%###$$l-3yu11rpru3d&0l@%%%=&%1u-1cflggffgfzfl=wu,$$w$$%dz@@-13-&==33%#&M3#%=&=-1p33zjlgff",
"#%%%@&17w-&6%=%##n6rwu1&13-uwd%3jX@%&&&&-7-1#@%####%%%@%1ww=:$3X#@dn#####%%#######M3&=&-&&=733#@%%%%",
"&&&&&%www-33&363#c3ydd&&&&=&3d&wl%#&%33%1331%&&&&&&&&&&%3rw=;&6X#@ul&=%%=&&%w&&&-&l1&=-=111311#&&&==",
"&&-&&%3f0-33%&&6#c3rru&====&uw&yl@%&=3-#=wf1#&&&&&&&&%&%3f7=:%7#&&gl3bzczzzfnzbbcjzw%&&u11-wt1#&&&&&",
"&%&&&&%&&##%&%%%#-%wwwyywdup3w&3-@%@&&&&#&%##%%%-&##%#&&%=&#&&=&&&&&.&&@@#####@%&@=##@X####&&###%&-&",
"bfbbccccw&-w33-w-ww3%=033366-#1=y&333%zu@wcczbbbbbbjbbbccbw%33u&w3&&@&3@&##&@##-=@-#&&&&&&#wzllbnnnn",
"#XXo%..X%&-w--&w--&ggggglgyuddgu%-333%lw&##.@%Xo@.@XXo#..&&33jzj3w&3#@1=&&#####-%#w#&@###%%@@..&X@oX",
"X@.@%..XX#%uw1%3r&@@#...+@..@@..#30&=#dd###..&@.X..X.@#..%#--u&1--0u###&--131r&&##w@##&&&&#@X..&@.X.",
";#X#1..@@%3t%&&<1&@#&....+..@%+@&3-0&#&#%#%..1@XXOO@XX-..=-0wu7--63y&@&3w31=@w-&%=w@-&&&%#@#@@.1XX@;",
"$$@:w@@=&&&13-%&&&@@&@.@@@@+.&@@&0#&33w03&,@@w$@%$;%@%3+@&-1-u=&03ww&#&f313#-w&1#&w#-3&%3&&0&X@w$@$$",
"$$$$w#X=300wld&366@@u..1&%##@=##-3011-www&,#@7@%o$$@%%3@@000yfzj3y1w@#&d-1==1u11#=w&---%&&##&##6o$o%",
"Mbnbbgflf&w&&&&81w%-y@$1&--&#16ttuuwuuuwwtwruuwwtttuua@##&y33&%%&3ww&#&du&&&&&&-%&3&-3&&#&&jjcbbnccc",
"&&&=&=$&=@####%##&@@&o$@@@##@&tufufflffffflww677777633-#X%&%&&&&%#%=%&=&========&&=@####@##6&&&=11==",
"7wwww&1zf#%&&#&%#-%=w$;%%%&&&-3uufjwuduuuw1dgfggpufdyfdu01ww1&wu=&1cwgggzuglzlzzzfz-3331--&cl7&w7rtw",
"fffu=1rlf&&%&%@@-&@=1$:$%#&%&1=X@@@+@@@@@@l&#######%%%&%%g&6w3wu&&-u&3&-=7-31-3=3=f&333&=1#Md1=&w7ff",
"77711&6fz&&#-&-=&#@#7$$;&%&-%11@@%%%&@&%@#z###&&&#=&&&#=&l&--6w0&&-g#%&&&%%&&&&&&#b&=31#1-&Mf3-w=677",
"ffdf6=3fj#%%-&%%&%@#1$###,=%@,3#&%##%%%%#=z#wluuu-=ufgug#z--33wy&&@j&-111-1&&1-=1&b&&33%==#cg=7&ffgf",
"&w=7rdufz%%##&&=&=#&w:$&#&=&&,3#&#&&&#%###l%y3w31===13=l#j=1333u=&1c-uuyyyyyyy301wb#&&&==&&bf1ddd&w&",
"rut6ruwjg#%%#-&&&&#&3;:%$:&%&13#&-@@##%%--l%wrwwj1=ffu-f&l&6=33&&&&l-uu6w363yyyyw-b#&&&-=6=bl6ffffu6",
"31w3fddjc#&=@&3--@@@7&$%$::,=13@@--#&1%&&-f%w3llu==fj1#d&j-3=llu&&&z-y1=33u-333-36c#ww3#&w&nl6rwfu-3",
"uww-dfdfc#&#&&&&&##dfdfpuupppud1X##@###@@#l#--ffu==cfw&z&g#&=##w&&#M=610yyuuu3133wc@#%#-=3=cu1dywz3u",
"lp11ww3gz&--&==#-r&&%&&&&&&&&&&#j&-%3--=&-l%w6lj1&=duu=l&l#&-33r=&wb1y1u-111-=f&y0b&===#=w=cfwfuffwz",
"ruu-7ffjz%131=&-3c&%-33-3333=-=&z%&%333u=3l&w6ugf-=udu&f&g-w#&=&&=-b1d-3gj6ulj3=y6f#&@&&1r=zfwu1wd3w",
"&%=&111jz&==3&&-3l&3#=&-&#&%&%=6j%=@-3&---l#w6ufd1&tff&j%g&3&%%&=&&c=13z&=u&-&z===c@&@&#11&ng1wf6u%&",
"du3u3upff%-3w@=&-b11333311-33&&ub%&&&1&,-yu%71fcw-&ffu=g#j@@#@@@@@#l1d3c=1u=y6z1y1j##@@%#.@nd&3=61wu",
"jufjw&6jl#-###1-3z-7clff31fjljdwj%&&-%3&1-c%67upw=&rdu&f&j&&&&%33&&d=y-p0yu&66z-d0lX%&&#&&%np&w&gggg",
"ffywuuwfl%33&=3&#n=6wfur1=tuf3dwj&3-#,,33-t%&-1--==---&1%g%&&=&#&%-z1u1cw-u=y3l-d=zX&33-#%#bf=-wwdwf",
"==--=&&wc&33&&11#n-66cff1-uub6fwc&3-&-:&11w@-u-1133-1-w1&w@&#%-#-33z131bw3p=u3c3uwz@&&&1&=&zf&&&=-==",
"uyuuuuut7%&-=&-&&b166bfg61lzbwgwb%3&-,<#<&3#&=&======&7-&3&--&&-=wwl=d3cwyp=1-c1uwc@&&=&31%33t=7rwwt",
"@@@@%@#&@@##@#@@#b17wblb71clbwzwg@###&##@#@@@7663&=-333@X##%=#&&%-=l=d1z=wu=y3c-w-z#&&&&=##&@#@#@X@#",
"X#@#&@@&@@#&-%%&=c=1wbcc71lcb6l1l#&&#&%-#=###3dfuuuufd3@#-3dydd---1l3u1b0wu=u-n103z=66d6rru-=..&@###",
"##XX-@@=-7ffdffful&33bcj11gcc7f6b%&&&-&&&&&#@6duuddddd6@@1wy03d0wu3z3d1j61u=wwn&13l#6uup=du&=X@&#@@#",
"uz#@f@@6#%&&&&&&&b-11cjc11clj1gwz#%#jud%&3&.Xrwdudgdwww@#0d00czc0w3l3r=b16w=w6j&uwl&1r&&1d318@@r@@zp",
"-&@&u#X8--3w33--wc-13lll31ljcwlwz@%16%w#%&%##wdyfdfdfdw@%--dyw#wu-ru1y1n6wu=y6c1u6z=&p6w1dufr@#u#@-=",
"@@X@uX%87ww3wwwwwz13w1331-1131lrf##&wr3%&#&@#wuuuyuuuww#&-ufwww3dwyl=u1b0yu=y6c=1=z%6u&&13&1w@@rXX@@",
"%&&%w@@< @@@@@@+@c-%&==&&&===&-7l#%@1=7%&@%@:wfuggg7ugw#&3-wuw&1uf3g-u3l73u&wwf=d3c%1jff3wu13@#1$$O&",
"nlzzjgnbf&#@#@##@c-&#&&&&&===#%6l%%@fff#=&%#$7jjguggfur#&ywy3llg1w1g-y&ulf3fllu&r3l&3&.#6u=lnnnnMcMM",
"%%#&&$@&=&%%%%&&%l#=@#########&%c#####@@=6w-wtr=ur1utrrtww&=X#%##&#=&&=&##%#%&&&&#=##-&-=0&-%#######",
"03w-3%1u1-&#&&&&%l#&w&-w&33-&6-&j&-3311=fpzulllfzcbbjffzlj1r&&&--=%jffguffjfffypffl&7u#r6w16w6&333-3",
"#&&1-#wr3-@#@@%%#j3bjflcczdfcccfg#=3-&%&u=7=11131111=33&&w&7@X.@##%d@##@@@@@#@@#@@d&3jrf6-=ww3%--&-#",
"&306=w1y31%#&%%&&%@###@###@@##@@##&%##%#w1c1wryuyyuuwud61z&7@###%#&j@@1##@#@###&%@c#%@##&&=7w61&333&",
"3llclc1ww-=&&&%%&&..&@@#+#@###@@&#%#dfj#u3c1wuuy6wyrwuwdyg&u@%%%@X&l@&#fr7117rd#&%b-3333wr37w3Mclfj3",
"=rwuwf7ww-#%=%-&%##%7&@@@@@#@&@##$#@1%w#f3l1juy=fduf=uffyu&w@#&#%&%z@%&3jl37fj3=#&f@@#@@@@-ww-g1urw=",
"=udcrj-0w--%%%-&@@@#7=%#%%#%%=@@@@@@ww1@f1j-w3&&=X@&#&11=z&w#@%&&&@z@&&3f%&&&f3-&&l@%#@###-w33j3jff1",
"1zbbdl33w-#%-3w&%@c=6-%%&#&&&-@j#%&#3%3%u3N1u-#731-3u#-ywz&6%3&--1-z@&%-l&&&wj--##gX&&=&-&-7-1z6cfg3",
"3nzndz36w1&%%-&=%f13r=--&1&%&=&rf%&%lcl#u1c1r--11&&7w%wy6z&w@31@@&1z@&&3l&wr&l6-%&z@&&&&&#1w=3z6nzn3",
"1jcndz13w1&%put#&j&-d6uy-#uupfw0l&&-&*&&d1b1r==11=&rw%333c&w@3&---#c@&%1l=ww&cw-%&c#&##&&&-31=b3nnc3",
"1zccul13w-@@p-p%*b&3&y03.+3u06w-M&&&---&u1l16&#61111r#&w6z&r#@@&&&%l@&&1f&&&&cw-&#f@#%#===3316j1nzz-",
"1vccuz133=&#7-u@&f&3dd3@.+@w-uw-b&-113-=u1d-3-&##@@@@%-wud&w#&--%%%g#-&1j=#&-j6-&&j.#&&&#&-w=1l=nfl=",
"1gflub-3w-@@w&u#&j-3&3&@.@@#3&-3j1ddu3uwf3b3df3-w7w3--f0wz&3@#&&#-@l##&0uu37fu3--&g@&&&&#&1u1-c1fll1",
"fffcfl-3w-&%===@3j1uww@..@.@3uuwl-wyuwy6f1z3fdr-&&&&-3wdwz&w@@=&%%@z@&&dw-31-3u&=&l@%&###@1u-3cflgfg",
"####@&33w-&#@@.&-l&ww+@@.@@+.uw6d3wudduwf=b77ddw13-33dudyl&w@##@#&#l@%=%%%@@%%&=##c@%&&&&%-w33%@%%%%",
"&&&&%#333-&--&%%1n1w@@@+.@.@@@3wz@%%#%%@f=1=111==111==11&1&w@%&&d%#f@&&%@#######=#c#w#&&&%1633%&&&&&",
"&&&%&%1p3-#--&3=3l-1@@#@.@@@@@#wl#%,&&%#fpcujgdzlzclfdffpl3t@%%&r&#u%=&&%&&&%%&&&&u@=&&%&&-wu1%=&&&&",
"&%&&&=&&&#&&&--11-&@@@@@+@@@@@@%-%-&-&3#-&&#%&=&&&&&&%&&%&##@##@X#@duuuduuudddddddu%=&%%=&#&&#&%&&=&",
"lflzllzcw&30yd1dd31&0633663-001&uwddu3ud0%=XX&&&#&##&&&.@&#%&&&&&&##@@#@##@@@#####&1rwr&uf#wcczbbzzc",
"@XXO$XoX&%&wd03wwdw&-3=-3111--&yrw66w#p-1%&Xo&13&=&&-=-@@%@&&&&&&&#%@&&@+@@@#@@%&.#331w&wu1-@..&X@@@",
"X@.@&XO.--u63g0dj1wzzznzddzzzgzc33y3rfu6w-3o$w13-=-d31w@@3#%&%%%%#@&@#%%#$$#77@&@.&-wwd-nn##@..&@.@.",
";$X#6O@@3w3u331-=c3dudurffffdwwub1y0w=ryyw3@$6gy-1wgudw%#w##@333#=#&%wrt7ww1rj=r#@1&yu--#=3&@@@,oXXO",
"$Oo$uO#%&3&rwgd1&c&3=11131311&&&c&y1cvj33&rX$6gd-33166w%#w###udu&##%#twwyuu&jb&1&@-33pdw&=3d#@@w%@$$",
"$$$;rX@@6g6gfdr6dc1wz3-wf3wwrl=wd%ud66-6y6yXX63-&1wfrjwX#w###tr7&1-&#uwd7dr-&&-1&@3=&111--&1%@#8$$@$",
"Mbbcnjfju-yywuy&dp1wl=wwt&wwyf&wj%16y0-6d31#&3uf316w6f6@@&@%#rt6%&u3=f3r13fu&&11&&g1udwydw1fdlzzcfll",
"111111&--@=6116%3z16z&y6u=310j&uf&33-311@%=X#&16&&--=&=#X###@uwr%#1r1f0dd3u3wuu-&wy1&6=1w=&6=&111111",
"3wwww=1zd&=t-=&-#z=-c&uw6&111u&uz$&%%&13@lfjlflffffufglzdl-&#fff&%cw1f10fffwddd-&wn&33-w3w&zf1&wyyyr",
"dfgd31wgj##,13f=%c=6l&duw=wywd&ul@#@@####p33=rffufufdw=&&f&&#fjg&=zw-uyguywwr7y-&wM@#%&%#-#lu1==dgff",
"316-u6wll%&%&0u&#z16n&3ww=wywg&uz@@@&##&%l013ppjjgggjrp-&j=0%=&=&1nr-d1r66dffud1&6z&&0&=%3#Mf=3w=333",
"gggf&33gl%&&jfl#&f3wn&uww&0w3f&3c#####%@%l11d36www1=w71u=j=3&#&#&3f3-u6-wu6wu111&1z@#g&&%3#zf3w&udfg",
"%r&--dujl##@#&@##c36n=0ww=wwwj&dd@#@#@@#@jw&j=wy3ww716=f1g@##@@#@#Mw-u63&111=&7=&1n#==##&3#cf&duu-w=",
"wu7wyu-gf#&@@@@@&c17c=33u=w36d%dz@#@@##&&fr6j61&36611w=u&g@#%##%%@z1-r6&=tuuu&3=&wN#&-&&-%#zg=6ddluw",
"11u1djfgc##%&&%##c=7j1wdu&wwww&dz@#%#%#-%fy1d61f66wf#u=p3j##&&%%&#g3-d6&=1%$7$3-&wz@@&&31-&nl3dwwu-3",
"uww=dfufb%-%--%&&z13b1wwr=al3f&ul$:%&&%%#fy1f61ujr31%d1p1j#%&&&%&@gw-d6&&1171#3==wn@&&&-=#%zp&wfdl3f",
"buw1dyufb%%&%%&%#z&wbjfuljfllc&uz=3&-1&10gy&j63utw11&01u1r%&&#%%%#zw=d1%&tuuu#==&7n##&&&&&%zf=uudfrz",
"urtwdddfb#@%&&--@b1w==========#uz&y&uuu13gy3l3&uf761#y-f1l@@#&&%#&nw=u6@&###@&-=&3z@#%&&&&%cu=dfufwu",
"117=wdufb#@%&%&=@l11&#######@@=yc&01=%fr=gy3u3,u&==1&w=w3j@%&&%%#@N-=uwf6wwyw3f==3c#%%%%%%#Nd&611f3&",
"wr1dw1wfb#@%#&-=&f117%333=33&&&pc&6==#r1&gy6f11##&&&&w-j3g##%$##&%cr-d1frjgggdw=&7c.@%%%%##Nd&fdd3ww",
"ddjg=-3uf#@:#&&&%c&31jwud3wy1u&uc&r=1=w67jy3f3=&=&=&%6-p=d#&&%%%%%z6&3pjruuudflf%wj@#&##%@#Md%r&ffff",
"wyd0r&rjz#@%#%3&&c-uu1lfuffjf3--z1w&###=-jr3f3=u7udyu3&71j%%#%&&&@bw#&#%#%##&%%#-wj@#&&&-%&cd117-uww",
"dddd=-=fl#@$,=&%#l163ffugfgu6wwul-u33--w-g-=t63uuuddf-u%&j@%&#$###c63uuuww3uw7yy7wb@%&&%#&#zp#-&uuuu",
"uuuuw&6lz&-3w-w0-zwzglzzzcbclzzbl@-=&u%&#fw1&&#&&=%&&&&@=g&&3ww--171616331www133313#&&%#&##bf-&3yyuu",
"33311-=11%3--w&0w%@@#####&&&#&##&&%,=#&&%1==&&&&#%#%#%%&%--33gu1w3fujwguuwuuduuffwd#%@&##%&-==-=11,1",
"zlflggggd&0&dg3u*=X@&&#&##&&&&@@&&#&3&%&%lgjjccczbbbczzzdg%w6&u3w30&@oOO;OXXXooOOX=@%www6@#jugflllll",
"#@X@&XoX%&1=&=3-0&.@-&=-1--==3.X&&-33&&#&%%X.&XooX@@Xo%.$=wyrjgldud-oXoo$@@@@X@@#@3#1bcl1@&@X..&@@#X",
"o$o#=oo@@%&&--3&yu.@=dd30&3ddu@@-%1--&&#@@#..&@X@XoXX@%@ -yydw#rd63,X@$o@@@X$$@#@#r$rlw13#&#X..=#X$#",
":$@#roX#&-&&#%6u&%XXwy0ww-dduu@@-#&-0&&%%&&X.w#@w06wX%1..&3ugwfwddgt@##&@@@@%##%&#w@cc3r6#&@@.@w$@$:",
"#$X%u@@&&<7&zz306-@#3ddd3&ggdy@@=#%1%%&&%&<@@wooX@#@X@3@@3dg&t&600w,#&&&%##%#%@@##w&&cjl1@&&#@@w$@O@",
"$#:$7X@&&-3-%%&-u3@X3u33333fdw.@3&&%&==&&#,@@3O$@##@$o1@#0udwzzgw1w=@%--%&%@&%%=#%r&wclz3#&%##@1$OO$",
"NzbMzlNMf=w3-dwdww1jglggffggggzd&@%%&===&dnnnnMcNNnznnllnnf-u&0=,3yu&-&&%::::&&&=%r#=-=&&#&jbbnnMcMM",
"######@%=&,1=-1-=p3-&&&&&&&&&&=&g&3&&#%@%=&#############@%=%@@#@&@#&@###OOOo$$%&##1=-#####&-&#######",
"w03=&&6d3-O@$###@1&&=dddyduuw6&&-@=1wwy&16w3&w3--0336&3&3u3=@#@@@##3#&-=&:>#:,$##&r&@@##&#=wuwC33313",
"#&&=&#wu6=@#@@@X@z=3uruywwwy0u&1g#=&1#%#1w36&--&=&#&&--#0r3113%7363-#&==%$>#=<,%&%u33333-31wwMDM-&-%",
"&306&w3d71#######z&wdd=ryyy6yd=ul@-&6&-%-7661&ww3&&306&33uw3#1#6%&%-#%&&$:>$=&&%=#u&&3-&&1&wZFFDA63&",
"3ccbcb1uw1wwuuyywz&ydd6-duwryd&ylX@&w&-#1363Mncjj63clzlb3uw-#&r&&&&1#&&%&&:&&=%###u&&&&&=#=7wBGVcll7",
"=wwpwjwww1@&#&$O@c&wuu3=ffwuwu=wf.#,#@-#3r3&l1fut==rruwlwww1-#=#133&@%#@##%$3&&@%@611333311rw-S1fuu1",
"1duzuz-ww1@#@##@#u-udd6-fj6u6d&yz@#-&&-#1r-1b3lfc1=udbuc=ww=X@@X@#$-#u-1111111116&u#####%#=r33c7lfz1",
"3zbbfvwww1%%@#&&#l1ddd61pf6rwd=uz@#&-w-#=711c1nfg11cbnpzwww=&=%@@#w-=#.X@X.X....@3u-##&##=&w33c6ngz3",
"7nznfM3-w-&3###%#c1ydd3-ur3fwd=uz@&&&=-@-r=1b3ncM63ncMpb6-w=##%%@@dj%@&=1&&&%3&&#1z3##%@&==u-3z3Mcn6"
};
