/* XPM */
static char *b2762753846b47378a59cbce48b22d48hzB6fUtAWsucDqCX[] = {
/* columns rows colors chars-per-pixel */
"80 80 178 2 ",
"   c #0A0B15",
".  c #0A0D1D",
"X  c #0E101F",
"o  c #11121F",
"O  c #0C0E21",
"+  c #0E1124",
"@  c #0F1328",
"#  c #121424",
"$  c #171825",
"%  c #1B1B26",
"&  c #11152B",
"*  c #14182E",
"=  c #1C1D2A",
"-  c #141730",
";  c #151A32",
":  c #191E36",
">  c #171E38",
",  c #191F39",
"<  c #201F27",
"1  c #201F2A",
"2  c #1F202C",
"3  c #1D2135",
"4  c #1C223C",
"5  c #1F293E",
"6  c #23232C",
"7  c #29272D",
"8  c #2B292E",
"9  c #232433",
"0  c #282731",
"q  c #272832",
"w  c #2C2B32",
"e  c #22263A",
"r  c #24293C",
"t  c #2B2D3B",
"y  c #312E33",
"u  c #2E303D",
"i  c #353234",
"p  c #3A3636",
"a  c #3E3937",
"s  c #34333B",
"d  c #39363B",
"f  c #3D3A3C",
"g  c #423E3C",
"h  c #4C3A3C",
"j  c #46413E",
"k  c #4A443E",
"l  c #4F483E",
"z  c #1E2542",
"x  c #1F2945",
"c  c #202744",
"v  c #212B44",
"b  c #2B2E42",
"n  c #232C4A",
"m  c #282E4C",
"M  c #243046",
"N  c #2E3141",
"B  c #26344A",
"V  c #28354C",
"C  c #2A344C",
"Z  c #28364D",
"A  c #2A394E",
"S  c #2A394F",
"D  c #2A3B4F",
"F  c #323342",
"G  c #373844",
"H  c #3B3B44",
"J  c #31394B",
"K  c #353A4A",
"L  c #3C3D49",
"P  c #393D4D",
"I  c #252F51",
"U  c #273152",
"Y  c #2B3351",
"T  c #2B3B50",
"R  c #2D3E51",
"E  c #323B53",
"W  c #3A3F54",
"Q  c #423F43",
"!  c #2F4053",
"~  c #314356",
"^  c #3C4251",
"/  c #344658",
"(  c #454244",
")  c #4A4542",
"_  c #4E4943",
"`  c #44434B",
"'  c #49464A",
"]  c #4C494C",
"[  c #5A4645",
"{  c #534C44",
"}  c #5F4946",
"|  c #584649",
" . c #534E4B",
".. c #5D4D4E",
"X. c #565047",
"o. c #5B5246",
"O. c #56504C",
"+. c #5B544C",
"@. c #5F584F",
"#. c #424653",
"$. c #454955",
"%. c #4B4A53",
"&. c #424659",
"*. c #44485D",
"=. c #494B5C",
"-. c #514D51",
";. c #504F58",
":. c #555251",
">. c #5B5452",
",. c #5E5953",
"<. c #54555C",
"1. c #5D5959",
"2. c #664C46",
"3. c #634D4A",
"4. c #634D4B",
"5. c #674E49",
"6. c #62544D",
"7. c #6C514B",
"8. c #635A4E",
"9. c #695E4D",
"0. c #72564D",
"q. c #635554",
"w. c #6C5551",
"e. c #635C54",
"r. c #6A5F52",
"t. c #635E5B",
"y. c #765C54",
"u. c #785E54",
"i. c #745F58",
"p. c #6C6152",
"a. c #6B6254",
"s. c #676059",
"d. c #6C645B",
"f. c #6E695A",
"g. c #726655",
"h. c #7D6157",
"j. c #746956",
"k. c #796C55",
"l. c #716759",
"z. c #7E6358",
"x. c #756B5B",
"c. c #796D5A",
"v. c #7D7057",
"b. c #7D715D",
"n. c #4F5264",
"m. c #5F5D62",
"M. c #6F6B69",
"N. c #746D62",
"B. c #796F61",
"V. c #7D7262",
"C. c #797268",
"Z. c #81755C",
"A. c #85775F",
"S. c #87795E",
"D. c #827561",
"F. c #867963",
"G. c #8B7D64",
"H. c #8A7E6A",
"J. c #8F8267",
"K. c #918265",
"L. c #94856B",
"P. c #97886C",
"I. c #9C8C6D",
"U. c #9B8C70",
"Y. c #A18F6F",
"T. c #A3926E",
"R. c #A18F71",
"E. c #A49372",
"W. c #A99774",
"Q. c #AB9A75",
"!. c #AD9C79",
"~. c #B19F79",
"^. c #B5A27E",
"/. c #7F8495",
"(. c #82848C",
"). c #878A96",
"_. c #96979B",
"`. c #AEADAE",
/* pixels */
"M M M M M M M M B 5 B M M B B M M v v v v v M M v + # [ V B B B M B B B B P | 4.5.2.h + . $ . $ O . M B B B B M M & M M M M M M M M M M O * M M M M M M M M M M ",
"M M M M M M M M M 4 M B M B M M * . . . . . O O & O # 2.} K B B B M B B B V B V L J t + . . . . O . B B B B M M M O M M M M M M M M M * . & M M V B V V B B B B ",
"M M M M M M M M - - M B B B M v + . O O O O O + O O + J V V B B M * B B B B v V B B 5 @ . . . @ O . V V V B B v & . + & & ; M M M M v . + + v M B V V V B B B B ",
"B M M M M M M M - * x B M M B ; @ @ @ @ @ @ @ @ O O + V V V V V M 3 M M M M 3 V V V v O . f . i = # 4.5.P V V 5 # . . O O + v M M M & . O O * M V V V V B B B B ",
"B B B B B B B v * * * M ; B B & . 8.= k.# c.. . O O + S V V V M @ + @ + + + & V S S v + . +.. k 0 $ 7.5.4.7.P 5 + @ @ @ @ @ : V B v . O O O @ M V V V V B V B V ",
"V V V V V B B v * * * V * V B & . $ . $ . $ . . O O @ S S - 5 M & & & & & & & * - T v r.. b.. p.O # 4.4.` S S N O O O O + + @ V V & . w 6 $ & 3 V V V V V V V V ",
"V V V V V B B v * * * V * V V & . Z.6 K.# I.. . O O @ T S - * v . . . . . . . * * * & = . 2 . = O O R R R S B x O = p.j.+   + V B + # 0 6 $ & # M V V V V V V V ",
"V V V V V V V - * * @ B * 4 ; + . . . . . . . . O O + R T * - v . . . . . . . * * * & # . K.. # O . R 3 - - ; v O O O . O w O V V O . + + . . @ M V V V V V V V ",
"V V V V V S S * * * + M * * - O . 9.6 A.# Z.. . @ O @ R T * * v . A.. S.$ Z.. * & & & # . & . # + O ! : - - - v O O O O O $ O S S O . # # O . @ B S T T V V V V ",
"S S S S S S V : & & @ & . & * + . o . $ . $ . . @ O O 3 - * * 4 . $ . $ . $ . * * & & # . . . Z.+ O ! : - * - v . O . l.$ c.O T S + . # @ = # @ B S S S S S S S ",
"^ T S S S S T @ @ + . + . * & @ . f $ j . ) . . @ O O * - * * & . 8.+ a.$ 8.. * * * & & . 0 . 0 + O 5 - * * - ; . O . O O O + R R + . 9.9.= # @ B S T S S S T q.",
"z.%.T %.z.z.` @ @ @ @ + + & & @ . f $ j . ) . . + + O * * * * & . w . 6 + 7 . * * * & & O b.. 8.@ O * * * * * & . $ X.8.# a.+ ! ! + . @ @ O . @ V T T T T T ~ y.",
"z.w.>.z.z.z.& @ @ @ + + + @ & @ . . . . . . . . @ O O - - * * & O W.+   = I.. * * * & & O c.+ 6.@ O * * * - - & . O O O O . + ! ~ + . @ @ O O @ S R R R R E R w.",
"z.y.z.z.z.` 4 4 4 4 4 4 4 . & @ . G.6 I.o I.. . + @ O * - * * & O O . . . O . * * * & & . w O 0 @ O * * - - - & . $ )  .# X.. ! ~ + . @ @ O . # S R R R i.h.y.h.",
"u.z.z.z.z.h O . . . . . O . & @ . . . . . . . . O O + * - - * & . y O i & w O * * * & & O = O 9 + . * * - - - & . O O + O . . R 4 + . # { . . g S R R $.>.z.7.7.",
"7.7.u.u.y.[ $ $ # . O O @ . & @ . A.< K.o I.. . + O O * - - * & O { O  .$ k . * * * & & O { O g + . * * - - - & . O # + O # . ; 4 + .  .# $ . j R %.7.u.y.0.7.5.",
"4.4.4.-./ M + + # a i O @ . & @ . o . # . # . . @ O O & - - * & O # . + . # . * * * & & O c.+ o.+ O * * - - - & . $ i p + g . * - . . & 6 i . 8 ^ 6.......#...4.",
"~ ~ ~ ~ ! M @ . # O k O @ . & @ . i # f . p . . + O @ & * - * & O K.+ G.6 Z.O * * * & & O 0 . 6 + O * * - - - & . . + @ O . . * - . . @ w O O 0 R ~ ~ ~ ~ R ~ ~ ",
"~ ~ ~ 4 - & O . # O . O @ . & @ . _ $ +.. o.. . + O + * - - - & . . O O . O O * * * & & O k.+ p.O O - - - - - & . $ (  .# { . * - . . @ # O . @ R ~ ~ v R : ! ~ ",
"~ S ~ : * & @ . & O . O @ . & # . O . . . . . . O O @ * - - - & O E.X E.0 G.. * - * & & O 0 O 6 O O - - - - - & . + + . . . . - - . . $ $ O . @ R ~ ~ r 3 - v ~ ",
"~ r ! - * & # O & O . O & . & # . L.6 I.# W.. . + + @ - - - - & O O O O + + + - - - & & O K.+ g.+ O - + * - - & . = +.a.# c.O - * . . 8.6.+ . @ R ~ v ; - - r ~ ",
"& & & & * & # O & O . @ & . & # . . . . . . . . @ + @ - - - - & O c.+ b.2 r.+ - - - & & O = O $ @ O - @ * - - & . O O . . . . - * . . @ # & + 0 ! ~ - - - * r ~ ",
"+ @ & @ - & # O & O = @ & . & & . b.= K.& K.. . @ @ @ - - - - & . $ O $ + $ + - - - * & O O O O @ O - @ * ; ; & . 1 g.b.$ Z.. * * . . # # # . 0 ! / - * * * : v ",
"@ @ & @ - & & O * O 6 @ & . & & . # . $ . $ . . + @ @ - ; ; - & O f + d $ i O ; ; - * & O O O O @ + - @ - : : & . . . . . . . * * . . # 9.O . @ V S * & & + + + ",
"O O . @ - & & O * O O @ * . & & . 0 # 8 . 8 . . @ @ @ - - ; - * + { + _ = ) + ; : : - & O O O O O O - @ - : : * O = j.c.$ K.. * - O . # # O O @ * * * & & + + + ",
". . . @ - & & O - O O @ - . & & O a.= j.# f.. . @ @ @ - : & - * O # O # + # + : : : - @ O O O O @ + - @ ; > : * O O + X . + . - - . . # # O O # * * * & + & & & ",
"o.. . @ - & & O - O O @ * . & & O O . O O & . . + @ @ : : & : - O L.# P.6 Z.+ : : : - @ O O O O @ + - @ : 4 > - O # k { # . . - * . . # o.1 # @ & * * & + +.8 Z.",
"$ . . @ - & & O - O O @ * . & & O K.0 T.: g & & * - - 4 4 * 4 - O O + + O + @ # @ : - @ O O O O @ O - @ : 4 4 - + . 8 w X . . * * . . # & O . @ & * * & + $ o 6 ",
"p o i @ - & & + - + O @ - . * & O O + * * # : & & : , & & + , & O W.# E.q K.+ . . : - @ O O O O @ O ; @ : 4 4 - O . 6 = . . . * * . . # # O O @ & * * & O . . X ",
"d # y @ - & & + - + O @ - O * & + d = : : - - : : * * : : , + & @ @ O + @ @ + . . : - & O O + O O O : @ : 4 4 - O $  . .$ . . * - O . # @ O O @ & * * & O j.i I.",
". . . @ - & & O : + O @ - O * & + _ = & & & & & & & & & & & O & O D.# F.6 k.+ . . * & & O O O O O @ : @ > 4 4 - O . . . . . . - - O . # # O . # & * * & O . . . ",
"G.6 F.@ - & & + + O O # - O * & + + @ , : : ; : ; : : : : ; O & + & + $ @ $ + . . & & @ + O O O @ @ # @ : : 4 * O $ c.c.$   . - - O . # # O O & & * - & O a.i K.",
". . O @ - : 4 4 & 4 4 4 z n - & @ K.0 x.u R.: E.u x.l.s E.: O & + ) + ) $ f @ . . - & @ O O O O @ O & # - : > # O . . . . . . - - O . # # O + & & - - & O o . $ ",
"g.% 9.@ - v & - @ - - - 4 & - & @ # # : : - : : - ; , : : : O & O d + d $ d @ . & - & @ @ @ @ @ * @ & @ - : - @ O $ g.j.= . . - - O @ 4 : - 4 * 4 4 ; & O 6.8 Z.",
"# . # @ , - , x - - - : v . - & @ { = t.t F.: F.t ,.e.N F.: O @ O = + = @ = @ . * * & @ @ @ @ @ & @ & @ - : - @ O . O . . . . - - O O : & & - @ & & - & O = # 6 ",
". . . @ x & & O - ; : , , . - & @ f $ ` e e.: ,.r ' ' r >.: O O + x.+ b.= ;.4 4 * z 4 4 4 4 4 4 - 4 & @ - > ; @ O $ +.+.$   . - - O O : : - 4 : , - * 4 O . . . ",
"O . . @ , - - & ; ; : n @ . ; & @ @ @ 4 : 4 : 4 4 4 : : 4 : O O O + @ @ @ 4 - - & - z 4 - , n - * - 4 @ ; > : @ . . = 1 . . . - - O . & n - @ . . - - * & . . . ",
"O O O z * - - ; ; : : c g . - & @ @ @ B.F E.: W.F l.d.F W.; O O O E.& W.O : - - ; ; - : ; : ; : : : z & ; > - @ O + 7 8 + . . - - O O t : : : : ; - - - 4 . . . ",
"O O O z z c c c n n n & $ . - & @ @ # : : : , : : : , , , : O O O + @ @ @ O * * * * * * * * * * * * - @ ; > - @ O $ k _ $ . . ; - O O ' 4 z n v v v v c c O . . ",
"O O O @ & & & ; > , : . . . - & # @ @ e.t L.4 J.t s.t.F G.; O O O P.& U.@ O : , , , , , , , , , , , , @ - > - @ O . + X . . . : ; O O e L - 9 r F :  .* & . . . ",
"O O O + X 9 t.r e.F e.. = . - @ @ @ @ L e >.:  .e ` L e ] : O O O + + + + O N B.t.` P.4 Q.e L.' 1., , @ - ; & # O $ j.x.$   . : : O O  .4 - e r F : +.- & . . . ",
"O O O @ + 3 O.r :.r  .6 y . @ @ @ @ @ e : e : r , 4 4 : r : O O O O + + O O 4 G u r L 4 ` 4 ` r b , , @ & & & # * + . . . . . : : O O * L - 4 : 3 - * * & . . . ",
"O O O @ * - - ; - - : . g . @ @ @ @ @ B.N E.3 W.F x.l.F W.: O O O O O @ O O 4 G F b ` : ` 3 ` r N , , @ & & & & & + O O O O O : @ O + a.- 4 N F ( 3 . * & . . . ",
"O O O O . * + & + * # . . . @ @ @ @ @ : : : , , : : : : : ; O O O O O @ O O t x.t.` L.3 W.e P.` >.: , O & & - v @ # & & & @ @ @ @ @ 3 - t * ; ; - - - * & . . . ",
"O O O @ & * - - ; ; : . { . @ @ @ # # a.t U., L.F x.d.t L.: O O O O O O @ O : : : : : 4 4 : : , 4 , : O & & & : , , , 4 : - ; : ; - & d.: - F G :.3 T.- 4 . . O ",
"O O O $ e.9 >.* & - & 0 w . @ @ @ @ @ G 4 ' : ' e H G 3 ( ; O O O O O O @ O F D.t.( I.e ^.e L.' t., : + & & & ; n , z * - - 4 & & - & , : - ; - & * - - , @ O O ",
"O O O = k.9 a.* & * & . . . @ @ @ @ @ r : r : N 4 @ e : r - O O O O O + + O : e 4 : e 4 e : 4 4 4 , , @ @ @ @ - - x 4 - : , 4 * ; 4 - : : - N s ( 3 P.- - @ O O ",
"O O O @ - & * - ; : : . . . @ @ @ @ @ V.F E.: W.F $ e.r E.- O O O O O @ O O r e.:.H B.4 H.e x.H %.: - @ @ @ @ ; - @ @ @ @ @ @ + @ @ @ : : - : - : - 3 - z O O O ",
"O O O @ & & - - ; : : . . . # & @ @ & z z 4 4 4 4 * 4 4 z 4 : # O O O @ @ O r O.] F d.: x.4 d.s ` : ; O @ @ @ ] - . . . . . . . . . + : : - t u H : B.- z + @ @ ",
"O O O @ - * - - - ; : . . . @ @ @ # 4 & & & & & & # * # # & - @ O O O @ @ O 4 e 4 3 r : r : e : 4 : ; O O + + - : O . = = s . p . i , & O O O O O O O . : . . O ",
"O O O @ & - - - ; ; : O @ + @ & @ 4 & - - - ; , ; & : - ; - x O @ @ @ @ @ O F D.a.( E.3 ^.e r ' >.: ; O + @ @ - k.O . g j b.# I.$ b.* U z , : : : ; ; - x - - z ",
"O O O @ & - : * & & & & & m @ & & - * - - - : : ; - - ; - , + O @ @ @ @ @ O : : - : : * 4 : * : : ; : @ @ @ @ ' * O . . . . . . . . z 4 n 4 4 , , : - - & & - z ",
"O O O @ - - m - 4 n 4 4 z @ @ # z z z z z z z z x x z z z 4 . O @ @ @ & n c 4 v n n v : v v : v c m : + @ @ @ - - O . ) k K.# Q.$ J.v v 4 z @ @ + O - - - - - @ ",
"O O O O - - , ; - @ & , v . @ # @ @ @ @ @ @ @ @ @ @ @ @ @ O . O @ @ @ n , 4 & 4 v 4 : @ : : & - - ; 4 O O O @ - V.O . . . + . . . O , <.4 I n c v v v c c c c z ",
"O O O O & v 4 z z z z n @ . # @ O O O O O O O O O O O O O . . O @ @ ; ; , : : & O & - - - - * * - * n @ O O @ Q - O . g g Z.# L.$ c.4 E E @ @ @ @ @ @ @ @ @ @ @ ",
"O O O O & @ # # # # & # . w @ @ O !.O I.y o.x.6 Q.O W.w a.. . O @ @ , 4 4 4 4 4 4 4 4 4 4 4 4 , , , 4 & O @ @ - - O . = = i O g . i v E #.. O . . . . . . . . . ",
"O O O @ & @ - - - ; ; - . 2 # @ O i . i $ = 6 + i . 8 # 6 . . O @ @ @ & & & @ & & @ @ @ # # @ @ & # @ O @ @ @ 9 - O . 2 = i . g + p 4 C.n . a.g { { K.6 b.w . . ",
"O O O O & @ a.r a.r L.: f $ # @ O $ . = + # $ . = . $ O # . . O @ @ @ 3 G.& & Y.d e.b.3 Q.& I.s >.@ @ O @ @ @ d : O . g g F.# P.$ Z.4 n t.. $ o $ $ 6 . = + . . ",
"O O O O & + 3 - 3 - 3 : $ p # @ O ~.. Y.i 8.k.= !.O Q.7 8.. . O @ @ @ & ; & & $ & $ $ & $ # * & & @ @ O O @ O * x.+ . . . . . . . . e W n . . . . . . . . . . . ",
"O O O O & + * - : : : - 1 # & @ O & O # O + # O # O # . + . . O @ @ @ * f & & Q = w d * ( & ( 2 w @ @ O @ O O & ; O . ) _ K.# !.$ K.4 <.n . r.( { { G.6 b.8 . . ",
"O O O + & + e.9 d.t P.- 7 $ & @ . 8.. 6.= i ( $ e.O 8.= g . . + @ @ @ = Z.& & I.s O.x.9 E.& P.s O.@ & O O O @ ( & O . . . . . . . . : V m.O 6 $ $ = 8 # 7 # . . ",
"O O O @ & + - - - ; ; - o # & # . W.. E.y o.g.1 !.O E.0 e.. . + @ @ @ & & & & # # # @ # # @ @ @ @ & & O O O @ * 3 O . g g Z.# U.$ b.- 1.v O X . . . # . X . @ z ",
"O O : @ & + O.e O.e V.: 6 p & & . . . . . . . . . . O . . . . + @ @ @ 3 D.& & P.s @.c.2 E.& L.s O.& # O @ @ @ & e.O . % = i O p . y , 4 e O a.g { { K.6 c.w . @ ",
"O @ & @ & + ( e ( 9 ,.: = + & @ . F.. c.0 ) o.$ Z.. D.6 { . . + @ @ @ ; H - & f = w s $ g & f = 0 # # + @ @ O ( & . . 6 6 g . j X a 4 N G . . . . X # . + . O . ",
"@ @ @ @ & + - - - - - - + O & @ . E.O L.y X.a.= E.O P.7 8.. . + @ @ @ - 9 & & 0 $ = 9 & 0 & 9 $ = # & O @ O O & c.. . g g b.X K.$ b.- e , . a.j w 4 @ @ & U U . ",
"4 4 , 4 4 4 ` r >.e k.; O O & @ . . . O . . . . . O O O O . . O @ @ @ : F.& & E.d +.D.9 !.& I.d >.& # O O O O f # . . . . . . + . . - , -.. $ # # z ; - - @ O . ",
"& & . * - : e r s.r G.; O O & @ . R.O L.w { a.= E.. P.0 +.. . O @ @ O # & & & # # # & & & @ @ @ & & # O O O O $ 8.. . ) j K.& ~.$ G.& 4 v . $ # = 4 x - - * & & ",
": ; & - - : & - - - - - O O & @ . b.. g.7 g  .$ c.O V.6 ) . . O + O @ = Z.& & L.d O.V.= E.& P.s { @ # O O O O = 0 . . . . . . O . . & - : . a.g  .n z ; - - - - ",
"n - - - 4 @ & - - - - - O . & @ . . . . . . . . . O O . . . . . @ @ O * Q & & ( 9 t H $ ) & ( 2 w @ @ O O O O d 6 . . j ( G.o I.$ Z.O - - . . . . n v x - - - - ",
". - & 4 @ O & - ' 9 d.; O . & @ . Q.. I.i +.j.2 Q.. W.8 a.. . O @ @ O & 3 & & 9 $ = = & 9 & 6 & = @ @ @ O O O & 8.. . $ = y . i + w . & - . . . . z n 4 ; - - * ",
"z c x * O O & - ] 9 8.- . . & @ . 8.. o.= i $.Y n.n =.Y &.n m V U U V V *.# & W.d +.D.9 ~.& I.d >.@ @ O O O O @ @ . . 6 6 g X k + g . + * . . . . &.S x v x z z ",
". . . O O O & - 4 4 4 c 4 4 4 4 4 4 4 4 4 c Y , 4 4 4 4 m z 4 4 z z 4 z n & & & # @ # # @ @ @ @ @ @ @ O O O O # # . . a a b.# J.# k.. . - . . . O n M.n @ O O O ",
". . . O O O & 4 & - , - * * - - - - - - - 4 z : , , 4 4 & , 4 4 4 4 4 4 , @ @ @ @ + @ @ @ @ O O O O O O O O - c 4 4 4 4 4 4 4 4 4 4 4 . & . . . O 4 ^ <.+ j.{ 7 ",
"+.. . O O O & 4 - - # - ; ; - ; : : : : 4 & ; - , , 4 4 4 , , : : 4 4 z O @ @ @ @ @ + + O + O O O O O O O O # m ; - ; - - - - - - 4 & & @ . . . O 4 n #.+ j.{ 7 ",
"7 . . O O O @ O O O O @ + O O + + + + + O @ : : : : : : : : : : 3 : : : . @ - & & & & & & & & & & c O O + O & 4 : ; m U m : ; - - & * v + . . . O x x /.+ . . . ",
"c.. . O O O . & d +.e.( u = 9 d @ + +.d # . i E.. Q.. . . a.b.6 !.. Q.+ . c - n n n n n z - & @ * 4 @ O O O @ , m - - & & O @ - - + * - & . . . O N._.`.(.( 7 $ ",
"$ . . O O O . & @ o.+.( t : 9 &  .+.>.G @ . 8 x.. b.. x.8 _ 8.= b.. b.+ . n : & & & & & & - - - - - & O O O # : 4 : : , , : : - - - ; : v O O . O ` 3 ).= v.o.w ",
". . . O O O . # & & & & & & * & & & & * @ . . = . % . $ . # $ . $ . $ . . z - - * * * * - - - - - * , O O O # r - @ @ @ + + + + + @ @ @ + O O . O , & b . . . . ",
". . . O O O . @ f r.r.g s : 9 y  .t.O.d @ . 6 p.O g.. 8.6 j o.$ a.. a.. O , : : : : : : : : : ; ; ; v O O O @ +.@ . . . . . . . . . . . . O O . O , , t . . . . ",
". . . O O O . @ @ # # 9 3 * $ = w s t 3 @ . . . . . . . . w i $ k . j O O # $ @ & & $ @ & $ $ & @ $ @ O O O @ * & . c.. x.$ g.p j { i . . O O . O : : * . k.l 8 "
};
